<?xml version="1.0" encoding="UTF-8" standalone="no"?>
<svg
   xmlns:dc="http://purl.org/dc/elements/1.1/"
   xmlns:cc="http://creativecommons.org/ns#"
   xmlns:rdf="http://www.w3.org/1999/02/22-rdf-syntax-ns#"
   xmlns:svg="http://www.w3.org/2000/svg"
   xmlns="http://www.w3.org/2000/svg"
   xmlns:sodipodi="http://sodipodi.sourceforge.net/DTD/sodipodi-0.dtd"
   xmlns:inkscape="http://www.inkscape.org/namespaces/inkscape"
   version="1.1"
   x="0px"
   y="0px"
   viewBox="-489 491 100.1 100.1"
   enable-background="new -489 491 100 100"
   xml:space="preserve"
   id="svg2"
   inkscape:version="0.91 r13725"
   sodipodi:docname="sonnenhut.svg"
   width="100.1"
   height="100.1"
   inkscape:export-filename="/suse/dpopov/Downloads/noun_158341_cc.png"
   inkscape:export-xdpi="90"
   inkscape:export-ydpi="90"><metadata
     id="metadata14"><rdf:RDF><cc:Work
         rdf:about=""><dc:format>image/svg+xml</dc:format><dc:type
           rdf:resource="http://purl.org/dc/dcmitype/StillImage" /><dc:title></dc:title></cc:Work></rdf:RDF></metadata><defs
     id="defs12" /><sodipodi:namedview
     pagecolor="#ffffff"
     bordercolor="#666666"
     borderopacity="1"
     objecttolerance="10"
     gridtolerance="10"
     guidetolerance="10"
     inkscape:pageopacity="0"
     inkscape:pageshadow="2"
     inkscape:window-width="1124"
     inkscape:window-height="813"
     id="namedview10"
     showgrid="false"
     fit-margin-top="0"
     fit-margin-left="0"
     fit-margin-right="0"
     fit-margin-bottom="0"
     inkscape:zoom="1.888"
     inkscape:cx="35.266075"
     inkscape:cy="37.6"
     inkscape:window-x="0"
     inkscape:window-y="0"
     inkscape:window-maximized="0"
     inkscape:current-layer="svg2" /><path
     d="m -413.9,545.2 -8.3,0 c -2.1,6.2 -8.3,12.5 -16.7,12.5 -8.4,0 -14.6,-6.2 -16.7,-12.5 l -8.3,0 c 2.1,12.5 12.5,20.8 25,20.8 12.5,0 22.9,-8.3 25,-20.8 z m -33.3,-4.2 c 0,4.2 4.2,8.3 8.3,8.3 4.1,0 8.3,-4.2 8.3,-8.3 0,-4.1 -4.2,-8.3 -8.3,-8.3 -4.1,0 -8.3,4.1 -8.3,8.3 z m 25,-4.2 8.3,0 c -2.1,-12.5 -12.5,-20.8 -25,-20.8 -12.5,0 -22.9,8.3 -25,20.8 l 8.3,0 c 2.1,-6.2 8.3,-12.5 16.7,-12.5 8.4,0 14.6,6.3 16.7,12.5 z m 14.5,-45.8 -27.1,0 0,8.3 27.1,0 c 6.2,0 10.4,4.2 10.4,10.4 l 0,62.5 c 0,6.2 -4.2,10.4 -10.4,10.4 l -27.1,0 0,8.3 27.1,0 c 12.5,0 18.8,-6.2 18.8,-18.8 l 0,-62.5 c 0,-12.4 -6.2,-18.6 -18.8,-18.6 z m -72.9,81.2 0,-62.5 c 0,-6.2 4.2,-10.4 10.4,-10.4 l 27.1,0 0,-8.3 -27.1,0 c -12.5,0 -18.8,6.2 -18.8,18.8 l 0,62.5 c 0,12.5 6.2,18.8 18.8,18.8 l 27.1,0 0,-8.3 -27.1,0 c -6.2,-0.1 -10.4,-4.3 -10.4,-10.6 z"
     id="path4"
     inkscape:connector-curvature="0"
     style="fill:#37abc8" /></svg>